<?xml version="1.0" encoding="utf-8"?>
<!-- Generator: Adobe Illustrator 21.0.0, SVG Export Plug-In . SVG Version: 6.00 Build 0)  -->
<svg version="1.1" id="レイヤー_1" xmlns="http://www.w3.org/2000/svg" xmlns:xlink="http://www.w3.org/1999/xlink" x="0px"
	 y="0px" viewBox="0 0 1000 1000" style="enable-background:new 0 0 1000 1000;" xml:space="preserve">
<style type="text/css">
	.st0{fill:#F5BAC5;}
</style>
<path class="st0" d="M500,0C367.4,0,240.2,52.7,146.4,146.4c-195.6,195-196,511.6-1,707.1s511.6,196,707.1,1c0.3-0.3,0.7-0.7,1-1
	c195.3-195.3,195.3-511.8,0-707.1C759.8,52.7,632.6,0,500,0z M499.9,280h107.1c-19.1,13.4-26.2,51-27.1,73.8V562
	c0,44.3-35.7,80-80,80s-80-35.7-80-80V360C419.9,315.7,455.6,280,499.9,280L499.9,280z M499.5,332c-15.5,0-28,12.5-28,28
	c0,15.5,12.5,28,28,28s28-12.5,28-28C527.5,344.6,515,332,499.5,332z M220.4,339.9c44.3,0,80,35.7,80,80v206.2
	c0.9,22.8,8,60.4,27.1,73.8H220.4c-44.3,0-80-35.7-80-80v-200C140.4,375.6,176.1,339.9,220.4,339.9L220.4,339.9z M779.6,339.9
	c44.3,0,80,35.7,80,80v200c0,44.3-35.7,80-80,80H672.4c19.1-13.4,26.2-51,27.1-73.8V419.9C699.6,375.6,735.2,339.9,779.6,339.9
	L779.6,339.9z M220,392c-15.5,0-28,12.5-28,28s12.5,28,28,28s28-12.5,28-28S235.5,392,220,392z M780,392c-15.5,0-28,12.5-28,28
	s12.5,28,28,28s28-12.5,28-28S795.5,392,780,392z M499.5,432c-15.5,0-28,12.5-28,28c0,15.5,12.5,28,28,28s28-12.5,28-28
	C527.5,444.6,515,432,499.5,432z M220,491.9c-15.5,0-28,12.5-28,28c0,15.5,12.5,28,28,28s28-12.5,28-28
	C248,504.5,235.5,491.9,220,491.9z M780,491.9c-15.5,0-28,12.5-28,28c0,15.5,12.5,28,28,28s28-12.5,28-28
	C808,504.5,795.5,491.9,780,491.9z M499.5,532c-15.5,0-28,12.5-28,28s12.5,28,28,28s28-12.5,28-28S515,532,499.5,532z M220,592
	c-15.5,0-28,12.5-28,28c0,15.5,12.5,28,28,28s28-12.5,28-28C248,604.5,235.5,592,220,592z M780,592c-15.5,0-28,12.5-28,28
	c0,15.5,12.5,28,28,28s28-12.5,28-28C808,604.5,795.5,592,780,592z"/>
</svg>
